<!--?xml version="1.0" standalone="no"?-->
              <svg id="sw-js-blob-svg" viewBox="0 0 100 100" xmlns="http://www.w3.org/2000/svg" version="1.1">
                    <defs> 
                        <linearGradient id="sw-gradient" x1="0" x2="1" y1="1" y2="0">
                            <stop id="stop1" stop-color="rgba(78.336, 64.808, 58.406, 1)" offset="0%"></stop>
                            <stop id="stop2" stop-color="rgba(76.816, 244.218, 247.102, 1)" offset="100%"></stop>
                        </linearGradient>
                    </defs>
                <path fill="url(#sw-gradient)" d="M21.8,-24.2C29.2,-19.7,36.9,-13.8,38.5,-6.5C40,0.7,35.5,9.3,30.4,17.1C25.4,25,19.8,32.1,12,36.3C4.2,40.6,-5.8,42,-14.5,39.1C-23.3,36.3,-30.8,29.2,-35.5,20.7C-40.2,12.1,-42.2,2.2,-40.3,-6.8C-38.4,-15.9,-32.6,-23.9,-25.3,-28.5C-17.9,-33,-8.9,-34.1,-0.9,-33C7.2,-31.9,14.3,-28.8,21.8,-24.2Z" width="100%" height="100%" transform="translate(50 50)" stroke-width="0" style="transition: all 0.3s ease 0s;" stroke="url(#sw-gradient)"></path>
              </svg>